# File created by Blade
# Date/Time:  Mon Sep 22 17:23:16 2014
# Frame Rate: 120.000 fps
#------------------------------------------------------
:FULLY-SPECIFIED
:DEGREES
1489
root 6.299892 37.335850 0.195188 -23.329376 3.844632 -5.594014
RightUpLeg -57.700311 -40.392548 -17.955541
RightLeg 104.304846 -0.000000 -0.000000
RightFoot 5.163927 -22.182674 16.153144
RightToeBase 4.715753 -0.000000 -0.000000
LeftUpLeg 25.617844 3.297624 -3.606729
LeftLeg 9.723673 -0.000000 -0.000000
LeftFoot -15.566229 11.852460 -13.910157
LeftToeBase 4.005638 -0.000000 -0.000000
Spine 29.571100 -8.953327 -7.810492
RightShoulder 3.949880 -24.736361 -9.560465
RightArm 27.474358 -11.421499 54.156161
RightForeArm -188.920351 -0.000000 109.006951
RightHand 95.991245 -0.000000 -155.937253
RightHandThumb1 -24.326973 -0.000000 -32.862282
LeftShoulder -13.014126 25.867515 9.263067
LeftArm 82.893998 -11.666783 -58.141894
LeftForeArm 58.979634 -0.000000 71.277551
LeftHand -23.626917 -0.000000 -23.461992
LeftHandThumb1 -26.253704 0.000000 33.147579
Head 4.536938 6.392217 12.088585
1490
root 6.280834 37.332894 0.194968 -23.339649 3.443429 -5.646924
RightUpLeg -57.599739 -40.206187 -17.984650
RightLeg 104.125197 -0.000000 -0.000000
RightFoot 4.958711 -22.255555 16.194912
RightToeBase 4.861463 -0.000000 -0.000000
LeftUpLeg 25.641870 3.414085 -3.508733
LeftLeg 9.715177 -0.000000 -0.000000
LeftFoot -15.597894 12.175023 -13.585816
LeftToeBase 3.767287 -0.000000 -0.000000
Spine 29.592900 -8.701466 -7.607300
RightShoulder 4.038925 -24.917564 -9.638090
RightArm 28.361346 -12.725669 53.787980
RightForeArm -189.165249 -0.000000 109.522949
RightHand 96.087006 -0.000000 -156.525188
RightHandThumb1 -24.326973 -0.000000 -32.862282
LeftShoulder -12.978559 25.847576 9.285538
LeftArm 82.895893 -11.684796 -58.175162
LeftForeArm 58.953035 0.000000 71.311899
LeftHand -23.616147 -0.000000 -23.503041
LeftHandThumb1 -26.253704 0.000000 33.147579
Head 4.502965 6.493574 12.059028
1491
root 6.267436 37.329764 0.196862 -23.374422 3.093892 -5.731222
RightUpLeg -57.431318 -40.054788 -18.033739
RightLeg 103.930734 -0.000000 -0.000000
RightFoot 4.856021 -22.372543 15.996475
RightToeBase 4.542299 -0.000000 -0.000000
LeftUpLeg 25.708442 3.467786 -3.425436
LeftLeg 9.675064 -0.000000 -0.000000
LeftFoot -15.745037 12.486351 -13.600041
LeftToeBase 3.813341 -0.000000 -0.000000
Spine 29.648307 -8.523195 -7.370559
RightShoulder 4.132120 -25.039121 -9.722903
RightArm 29.177359 -14.040064 53.354810
RightForeArm -189.475576 0.000000 109.964767
RightHand 96.198323 -0.000000 -156.924788
RightHandThumb1 -24.326973 -0.000000 -32.862282
LeftShoulder -12.960763 25.882423 9.259288
LeftArm 82.963695 -11.717697 -58.215900
LeftForeArm 58.861244 -0.000000 71.330366
LeftHand -23.623977 -0.000000 -23.435768
LeftHandThumb1 -26.253704 0.000000 33.147579
Head 4.457146 6.577819 11.960688
1492
root 6.250612 37.325096 0.198269 -23.396889 2.748668 -5.798359
RightUpLeg -57.263045 -39.840415 -18.117593
RightLeg 103.762033 -0.000000 -0.000000
RightFoot 4.661498 -22.421704 16.143697
RightToeBase 4.998300 -0.000000 -0.000000
LeftUpLeg 25.747412 3.605112 -3.308217
LeftLeg 9.671691 -0.000000 -0.000000
LeftFoot -15.925171 12.695846 -13.659257
LeftToeBase 3.990325 -0.000000 -0.000000
Spine 29.690864 -8.321154 -7.162734
RightShoulder 4.196642 -25.177835 -9.770419
RightArm 29.947185 -15.298663 52.942224
RightForeArm -189.573631 -0.000000 110.341479
RightHand 96.434386 -0.000000 -157.756142
RightHandThumb1 -24.326973 -0.000000 -32.862282
LeftShoulder -12.933234 25.921613 9.256631
LeftArm 83.037293 -11.749156 -58.241105
LeftForeArm 58.796826 -0.000000 71.338259
LeftHand -23.684239 -0.000000 -23.338719
LeftHandThumb1 -26.253704 0.000000 33.147579
Head 4.405593 6.667230 11.890750
1493
root 6.234646 37.321738 0.197834 -23.418898 2.476287 -5.883160
RightUpLeg -57.035738 -39.693267 -18.238006
RightLeg 103.602385 -0.000000 -0.000000
RightFoot 4.583325 -22.360454 16.029223
RightToeBase 4.607934 -0.000000 -0.000000
LeftUpLeg 25.771996 3.734612 -3.165072
LeftLeg 9.679255 -0.000000 -0.000000
LeftFoot -16.059968 12.835496 -13.664509
LeftToeBase 4.038374 -0.000000 -0.000000
Spine 29.753381 -8.200548 -6.997203
RightShoulder 4.293220 -25.313807 -9.756025
RightArm 30.659559 -16.502672 52.442627
RightForeArm -189.760869 -0.000000 110.706679
RightHand 96.573872 0.000000 -158.551216
RightHandThumb1 -24.326973 -0.000000 -32.862282
LeftShoulder -12.925892 25.933330 9.262295
LeftArm 83.104776 -11.744623 -58.292778
LeftForeArm 58.838873 -0.000000 71.347552
LeftHand -23.643322 -0.000000 -23.272097
LeftHandThumb1 -26.253704 0.000000 33.147579
Head 4.351631 6.667787 11.796234
1494
root 6.226206 37.315254 0.199723 -23.434728 2.299587 -5.929933
RightUpLeg -56.778225 -39.607713 -18.478412
RightLeg 103.467397 -0.000000 -0.000000
RightFoot 4.525838 -22.322865 16.000910
RightToeBase 4.588888 -0.000000 -0.000000
LeftUpLeg 25.807488 3.801720 -3.095648
LeftLeg 9.660251 -0.000000 -0.000000
LeftFoot -16.160975 12.954434 -13.639725
LeftToeBase 4.048688 -0.000000 -0.000000
Spine 29.805183 -8.167951 -6.898987
RightShoulder 4.383033 -25.506753 -9.784836
RightArm 31.390779 -17.667865 51.971876
RightForeArm -189.997625 0.000000 110.976249
RightHand 96.789942 -0.000000 -159.487246
RightHandThumb1 -24.326973 -0.000000 -32.862282
LeftShoulder -12.929851 25.959507 9.227166
LeftArm 83.147382 -11.785626 -58.266187
LeftForeArm 58.855752 -0.000000 71.399287
LeftHand -23.671706 0.000000 -23.303266
LeftHandThumb1 -26.253704 0.000000 33.147579
Head 4.311358 6.767923 11.721657
1495
root 6.213745 37.309441 0.196711 -23.433840 2.148711 -5.980164
RightUpLeg -56.540875 -39.502576 -18.707047
RightLeg 103.342499 -0.000000 -0.000000
RightFoot 4.525176 -22.258268 15.938485
RightToeBase 4.440677 -0.000000 -0.000000
LeftUpLeg 25.780478 3.917046 -2.984904
LeftLeg 9.723076 -0.000000 -0.000000
LeftFoot -16.300803 12.985064 -13.638775
LeftToeBase 4.158149 -0.000000 -0.000000
Spine 29.856794 -8.159569 -6.825494
RightShoulder 4.474289 -25.711820 -9.788204
RightArm 32.074052 -18.742265 51.588179
RightForeArm -190.208248 -0.000000 111.221860
RightHand 96.988964 0.000000 -160.572576
RightHandThumb1 -24.326973 -0.000000 -32.862282
LeftShoulder -12.914504 25.967153 9.211620
LeftArm 83.162548 -11.839012 -58.283120
LeftForeArm 58.867533 0.000000 71.468808
LeftHand -23.690535 0.000000 -23.281787
LeftHandThumb1 -26.253704 0.000000 33.147579
Head 4.266543 7.004583 11.763886
1496
root 6.194241 37.304786 0.189293 -23.429847 1.940835 -5.980114
RightUpLeg -56.369864 -39.274439 -18.883939
RightLeg 103.228173 -0.000000 -0.000000
RightFoot 4.521084 -22.303388 15.868704
RightToeBase 4.540269 -0.000000 -0.000000
LeftUpLeg 25.756445 4.107189 -2.874745
LeftLeg 9.769363 -0.000000 -0.000000
LeftFoot -16.385125 12.971161 -13.637425
LeftToeBase 4.213702 -0.000000 -0.000000
Spine 29.920799 -8.045900 -6.825851
RightShoulder 4.507618 -25.984604 -9.669747
RightArm 32.848451 -19.725352 51.019836
RightForeArm -190.658611 -0.000000 111.404905
RightHand 97.062112 -0.000000 -161.665930
RightHandThumb1 -24.326973 -0.000000 -32.862282
LeftShoulder -12.919909 25.991839 9.242940
LeftArm 83.216566 -11.884129 -58.316119
LeftForeArm 58.840939 -0.000000 71.524184
LeftHand -23.738423 -0.000000 -23.149739
LeftHandThumb1 -26.253704 0.000000 33.147579
Head 4.185393 7.123799 11.838688
1497
root 6.177168 37.298857 0.179536 -23.393658 1.772955 -5.956452
RightUpLeg -56.217179 -39.030747 -19.105017
RightLeg 103.137086 -0.000000 -0.000000
RightFoot 4.502371 -22.184312 15.947411
RightToeBase 4.641281 -0.000000 -0.000000
LeftUpLeg 25.698745 4.253093 -2.813372
LeftLeg 9.810436 -0.000000 -0.000000
LeftFoot -16.476154 12.953184 -13.680070
LeftToeBase 4.310472 -0.000000 -0.000000
Spine 29.953378 -7.950956 -6.867243
RightShoulder 4.496021 -26.295780 -9.502503
RightArm 33.642497 -20.644400 50.438869
RightForeArm -190.542491 -0.000000 111.534066
RightHand 97.273834 -0.000000 -162.759805
RightHandThumb1 -24.326973 -0.000000 -32.862282
LeftShoulder -12.915083 26.011495 9.280689
LeftArm 83.257704 -11.932262 -58.338784
LeftForeArm 58.840779 0.000000 71.592697
LeftHand -23.644120 -0.000000 -23.147497
LeftHandThumb1 -26.253704 0.000000 33.147579
Head 4.101666 7.230242 11.931079
1498
root 6.163335 37.294173 0.171308 -23.366208 1.637735 -5.914031
RightUpLeg -56.053511 -38.817559 -19.353338
RightLeg 103.051386 -0.000000 -0.000000
RightFoot 4.544538 -22.156396 15.912211
RightToeBase 4.618189 -0.000000 -0.000000
LeftUpLeg 25.659648 4.343980 -2.799201
LeftLeg 9.833790 -0.000000 -0.000000
LeftFoot -16.541169 12.930116 -13.738986
LeftToeBase 4.326120 -0.000000 -0.000000
Spine 29.990957 -7.857132 -6.938483
RightShoulder 4.442894 -26.568494 -9.278863
RightArm 34.305605 -21.478629 49.928701
RightForeArm -190.451952 -0.000000 111.620045
RightHand 97.535594 -0.000000 -163.546769
RightHandThumb1 -24.326973 -0.000000 -32.862282
LeftShoulder -12.886305 26.072604 9.309955
LeftArm 83.333536 -12.005275 -58.365820
LeftForeArm 58.820525 -0.000000 71.667850
LeftHand -23.645917 0.000000 -23.072758
LeftHandThumb1 -26.253704 0.000000 33.147579
Head 4.034075 7.300185 12.044645
1499
root 6.151351 37.290022 0.160400 -23.344082 1.496116 -5.850941
RightUpLeg -55.920546 -38.585908 -19.568520
RightLeg 102.958296 -0.000000 -0.000000
RightFoot 4.507092 -22.165873 15.881754
RightToeBase 4.757553 -0.000000 -0.000000
LeftUpLeg 25.635913 4.386637 -2.837471
LeftLeg 9.821244 -0.000000 -0.000000
LeftFoot -16.594634 12.963449 -13.834645
LeftToeBase 4.390576 -0.000000 -0.000000
Spine 30.045914 -7.782773 -7.043205
RightShoulder 4.393315 -26.842086 -9.085935
RightArm 34.980082 -22.249266 49.514109
RightForeArm -190.318035 -0.000000 111.591224
RightHand 97.737658 -0.000000 -164.285972
RightHandThumb1 -24.326973 -0.000000 -32.862282
LeftShoulder -12.874934 26.114038 9.329868
LeftArm 83.364762 -12.094454 -58.385754
LeftForeArm 58.805924 -0.000000 71.774151
LeftHand -23.747621 0.000000 -22.863336
LeftHandThumb1 -26.253704 0.000000 33.147579
Head 3.957171 7.422846 12.142734
1500
root 6.133405 37.285896 0.149212 -23.298757 1.331578 -5.764035
RightUpLeg -55.848409 -38.297934 -19.735395
RightLeg 102.886186 -0.000000 -0.000000
RightFoot 4.438303 -22.230524 15.874986
RightToeBase 4.726974 -0.000000 -0.000000
LeftUpLeg 25.587865 4.461930 -2.881672
LeftLeg 9.812672 -0.000000 -0.000000
LeftFoot -16.625671 13.022021 -13.884747
LeftToeBase 4.437694 -0.000000 -0.000000
Spine 30.065105 -7.705430 -7.198920
RightShoulder 4.357285 -27.014746 -8.854550
RightArm 35.559355 -23.098207 49.101826
RightForeArm -190.590517 -0.000000 111.473591
RightHand 97.793083 -0.000000 -164.792329
RightHandThumb1 -24.326973 -0.000000 -32.862282
LeftShoulder -12.893265 26.126522 9.366520
LeftArm 83.338930 -12.162603 -58.401727
LeftForeArm 58.813296 0.000000 71.884147
LeftHand -23.773797 0.000000 -22.744395
LeftHandThumb1 -26.253704 0.000000 33.147579
Head 3.909195 7.559428 12.245024
